<svg width="229" height="56" viewBox="0 0 229 56" fill="none" xmlns="http://www.w3.org/2000/svg">
<path d="M0.836914 27.9475L21.3607 34.3612L27.7744 27.9475H0.836914Z" fill="white"/>
<path d="M0.836914 27.9476H27.7744L21.3607 21.6052L0.836914 27.9476Z" fill="white"/>
<path d="M31.4092 27.9476L37.8229 21.6052L58.3467 27.9476H31.4092Z" fill="white"/>
<path d="M31.4092 27.9475L37.8229 34.3612L58.3467 27.9475H31.4092Z" fill="white"/>
<path d="M29.6276 26.9499L23.2139 20.5363L29.6276 0.0124512V26.9499Z" fill="white"/>
<path d="M29.6279 26.9499L35.9704 20.5363L29.6279 0.0124512V26.9499Z" fill="white"/>
<path d="M29.6279 55.9538L35.9704 35.43L29.6279 29.0164V55.9538Z" fill="white"/>
<path d="M23.2139 35.43L29.6276 55.9538V29.0164L23.2139 35.43Z" fill="white"/>
<path d="M38.0366 19.6098L36.6826 15.1915L48.7974 8.77783L38.0366 19.6098Z" fill="white"/>
<path d="M38.0361 19.6098L42.4545 21.0351L48.7969 8.77783L38.0361 19.6098Z" fill="white"/>
<path d="M38.25 36.499L42.7396 35.0737L49.1533 47.2597L38.25 36.499Z" fill="white"/>
<path d="M38.2495 36.428L36.8955 40.9176L49.1528 47.26L38.2495 36.428Z" fill="white"/>
<path d="M21.2187 36.7129L22.5727 41.1312L10.3867 47.5449L21.2187 36.7129Z" fill="white"/>
<path d="M21.2187 36.7129L16.8004 35.2876L10.3867 47.5449L21.2187 36.7129Z" fill="white"/>
<path d="M21.2187 19.6098L16.8004 20.9638L10.3867 8.77783L21.2187 19.6098Z" fill="white"/>
<path d="M21.2187 19.6098L22.5727 15.1915L10.3867 8.77783L21.2187 19.6098Z" fill="white"/>
<path d="M113.576 15.4766H108.516L97.8266 26.4511L97.8978 15.4766H93.5508V40.4187H97.8978V29.4441C99.3944 30.9407 108.16 40.4187 108.16 40.4187H113.576L102.102 27.8764L113.576 15.4766Z" fill="white"/>
<path d="M133.457 18.8255C131.034 16.4026 127.756 15.0486 124.264 15.0486C120.772 15.0486 117.565 16.4026 115.142 18.8255C112.719 21.2485 111.365 24.5266 111.365 28.0185C111.365 35.1448 117.138 40.9171 124.264 40.9171C127.685 40.9171 130.963 39.5631 133.386 37.1402C135.88 34.7172 137.234 31.5104 137.234 28.0897C137.163 24.5266 135.809 21.2485 133.457 18.8255ZM124.264 36.7839C121.841 36.7839 119.774 35.9287 118.278 34.2896C116.639 32.6506 115.712 30.2276 115.712 27.876C115.712 25.7381 116.496 23.6002 117.921 21.8899C119.561 19.9657 121.698 19.0393 124.264 19.0393C126.901 19.0393 128.967 19.9657 130.678 21.8899C132.103 23.6002 132.887 25.7381 132.887 27.9472C132.887 30.1564 131.889 32.6506 130.321 34.2184C128.682 35.9287 126.616 36.7839 124.264 36.7839Z" fill="white"/>
<path d="M165.527 15.4766H159.683C159.683 15.4766 153.483 31.297 152.771 33.1498C152.058 31.297 145.787 15.4766 145.787 15.4766H139.516V40.4187H143.863V21.8903C145.217 25.2396 151.345 40.4187 151.345 40.4187H154.053C154.053 40.4187 160.182 25.2396 161.536 21.8903V40.4187H165.883V15.4766H165.527Z" fill="white"/>
<path d="M181.417 15.4766H170.442H170.015V40.4187H174.362V30.9407H179.991C183.341 30.9407 185.194 30.228 186.904 28.3752C188.258 26.8787 188.899 25.2396 188.899 23.1017C188.971 18.6121 185.835 15.4766 181.417 15.4766ZM174.433 19.5386H180.134C181.987 19.5386 182.7 19.7524 183.412 20.465C184.125 21.1064 184.552 22.1753 184.552 23.1017C184.552 24.0994 184.054 25.2396 183.341 25.9523C182.557 26.6649 181.702 26.8787 180.205 26.8787H174.433V19.5386Z" fill="white"/>
<path d="M199.518 15.4763H199.233H195.741L185.408 40.4184H190.04L192.962 33.2921H202.298L205.148 40.4184H209.78L199.518 15.4763ZM200.659 29.3014H194.672L197.737 20.9636L200.944 29.2301" fill="white"/>
<path d="M226.242 28.3752C225.173 27.4488 222.536 26.3085 219.757 25.5247C218.189 25.0971 216.622 24.4557 216.194 24.0994C215.481 23.6718 215.196 22.8167 215.196 21.9615C215.268 20.5362 216.835 19.0397 218.973 19.0397C220.612 19.0397 223.178 19.7523 223.249 22.1753V22.6029H227.667V22.1753C227.596 20.5362 227.168 19.4673 226.527 18.3983C225.102 16.1892 221.752 15.049 219.187 14.9777C214.555 14.9064 210.707 18.1845 210.707 22.5316C210.707 24.3844 211.348 25.4534 212.488 26.6649C213.486 27.7338 216.55 28.874 217.69 29.3016C218.831 29.7292 220.755 30.1568 221.966 30.7269C222.893 31.0832 223.534 32.0096 223.534 33.2211C223.534 35.2164 221.824 36.8555 219.044 36.8555C217.263 36.8555 214.484 36.0716 214.199 32.8648L214.127 32.5084H209.709V32.936C209.923 37.9245 213.628 40.9888 218.902 40.9175C224.104 40.9175 228.095 37.4256 228.095 32.7935C228.166 30.7981 227.454 29.4441 226.242 28.3752Z" fill="white"/>
<path d="M70.7461 52.5335V3.57568H71.53V52.5335H70.7461Z" fill="white"/>
</svg>
