<svg width="81" height="79" viewBox="0 0 81 79" fill="none" xmlns="http://www.w3.org/2000/svg">
<path d="M0.0766602 39.2567L28.8167 48.238L37.798 39.2567H0.0766602Z" fill="white"/>
<path d="M0.0766602 39.2567H37.798L28.8167 30.3752L0.0766602 39.2567Z" fill="white"/>
<path d="M42.8872 39.2567L51.8685 30.3752L80.6085 39.2567H42.8872Z" fill="white"/>
<path d="M42.8872 39.2567L51.8685 48.238L80.6085 39.2567H42.8872Z" fill="white"/>
<path d="M40.3919 37.8596L31.4106 28.8784L40.3919 0.138306V37.8596Z" fill="white"/>
<path d="M40.3926 37.8596L49.2741 28.8784L40.3926 0.138306V37.8596Z" fill="white"/>
<path d="M40.3926 78.4749L49.2741 49.7349L40.3926 40.7536V78.4749Z" fill="white"/>
<path d="M31.4106 49.7349L40.3919 78.4749V40.7536L31.4106 49.7349Z" fill="white"/>
<path d="M52.168 27.5811L50.272 21.394L67.2366 12.4127L52.168 27.5811Z" fill="white"/>
<path d="M52.1685 27.5811L58.3556 29.5769L67.237 12.4127L52.1685 27.5811Z" fill="white"/>
<path d="M52.4673 51.2317L58.7542 49.2359L67.7354 66.3003L52.4673 51.2317Z" fill="white"/>
<path d="M52.4678 51.132L50.5718 57.4188L67.736 66.3003L52.4678 51.132Z" fill="white"/>
<path d="M28.6171 51.5311L30.5131 57.7182L13.4487 66.6995L28.6171 51.5311Z" fill="white"/>
<path d="M28.6171 51.5311L22.43 49.5353L13.4487 66.6995L28.6171 51.5311Z" fill="white"/>
<path d="M28.6171 27.5811L22.43 29.4771L13.4487 12.4127L28.6171 27.5811Z" fill="white"/>
<path d="M28.6171 27.5811L30.5131 21.394L13.4487 12.4127L28.6171 27.5811Z" fill="white"/>
</svg>
